<svg>
  <symbol xmlns="http://www.w3.org/2000/svg" viewBox="0 0 62 61" id="arrow">
    <path d="M31.75 19.75a.75.75 0 00-1.5 0h1.5zM31 42.25l-.53.53a.75.75 0 001.06 0l-.53-.53zm-9.97-11.03a.75.75 0 10-1.06 1.06l1.06-1.06zm21 1.06a.75.75 0 10-1.06-1.06l1.06 1.06zM31 61.75c16.983 0 30.75-13.767 30.75-30.75h-1.5c0 16.154-13.096 29.25-29.25 29.25v1.5zM61.75 31C61.75 14.017 47.983.25 31 .25v1.5c16.154 0 29.25 13.096 29.25 29.25h1.5zM31 .25C14.017.25.25 14.017.25 31h1.5C1.75 14.846 14.846 1.75 31 1.75V.25zM.25 31C.25 47.983 14.017 61.75 31 61.75v-1.5C14.846 60.25 1.75 47.154 1.75 31H.25zm30-11.25v22.5h1.5v-22.5h-1.5zM19.97 32.28l10.5 10.5 1.06-1.06-10.5-10.5-1.06 1.06zm11.56 10.5l10.5-10.5-1.06-1.06-10.5 10.5 1.06 1.06z"></path>
  </symbol>
</svg>